<svg xmlns="http://www.w3.org/2000/svg" xmlns:xlink="http://www.w3.org/1999/xlink" width="24" height="24" viewBox="0 0 24 24">
    <defs>
        <path id="a" d="M17.5 9.167H15v-.084c.417-.416.75-1 .833-1.666.084-.834-.166-1.667-.75-2.25-.416-.417-.916-.75-1.416-.834C13.083 1.75 10.917 0 8.333 0c-2.583 0-4.75 1.75-5.25 4.25-.583.167-1.083.417-1.5.917C1 5.75.75 6.583.833 7.417c.084.666.334 1.25.834 1.666v10.084c0 .5.333.833.833.833h11.667c.5 0 .833-.333.833-.833v-3.334h.833c1.417 0 2.5-1.083 2.5-2.5V10c0-.5-.333-.833-.833-.833zM2.833 6.25c.25-.25.584-.417.834-.417s.416 0 .583-.166c.167-.167.25-.334.333-.584.167-1.916 1.834-3.416 3.75-3.416 1.917 0 3.584 1.5 3.75 3.416 0 .25.167.417.334.584.166.083.333.166.5.166.333 0 .666.167.916.417.25.25.334.583.334 1-.084.667-.667 1.083-1.334 1.083h-4.5c-.5 0-.833.334-.833.834V12.5c0 .5-.333.833-.833.833-.5 0-.834-.333-.834-.833V9.167c0-.5-.333-.834-.833-.834H3.833c-.666 0-1.25-.5-1.333-1.083 0-.417.083-.75.333-1zm13.834 7.083c0 .5-.334.834-.834.834H15v-3.334h1.667v2.5z"/>
    </defs>
    <g fill="none" fill-rule="evenodd" transform="translate(3 2)">
        <mask id="b" fill="#fff">
            <use xlink:href="#a"/>
        </mask>
        <use fill="#fff" fill-rule="nonzero" xlink:href="#a"/>
        <g fill="#fff" mask="url(#b)">
            <path d="M-3-2h24v24H-3z"/>
        </g>
    </g>
</svg>
