<?xml version="1.0" encoding="UTF-8"?>
<svg width="24px" height="24px" viewBox="0 0 24 24" version="1.1" xmlns="http://www.w3.org/2000/svg" xmlns:xlink="http://www.w3.org/1999/xlink">
    <!-- Generator: sketchtool 49.3 (51167) - http://www.bohemiancoding.com/sketch -->
    <title>C503E2CB-748B-4E3A-BB38-F63045B032A9</title>
    <desc>Created with sketchtool.</desc>
    <defs>
        <path d="M15.8333333,4.16666667 L12.5,4.16666667 C12.5,1.83333333 10.6666667,0 8.33333333,0 C6,0 4.16666667,1.83333333 4.16666667,4.16666667 L0.833333333,4.16666667 C0.333333333,4.16666667 0,4.5 0,5 L0,19.1666667 C0,19.6666667 0.333333333,20 0.833333333,20 L15.8333333,20 C16.3333333,20 16.6666667,19.6666667 16.6666667,19.1666667 L16.6666667,5 C16.6666667,4.5 16.3333333,4.16666667 15.8333333,4.16666667 Z M8.33333333,1.66666667 C9.75,1.66666667 10.8333333,2.75 10.8333333,4.16666667 L5.83333333,4.16666667 C5.83333333,2.75 6.91666667,1.66666667 8.33333333,1.66666667 Z" id="path-1"></path>
    </defs>
    <g id="Symbols" stroke="none" stroke-width="1" fill="none" fill-rule="evenodd">
        <g id="icon/cart">
            <g id="bag-20" transform="translate(4.000000, 2.000000)">
                <mask id="mask-2" fill="white">
                    <use xlink:href="#path-1"></use>
                </mask>
                <use id="Shape" fill="#fff" fill-rule="nonzero" xlink:href="#path-1"></use>
                <g id="Color/Black" mask="url(#mask-2)" fill="#fff">
                    <g transform="translate(-4.000000, -2.000000)" id="icon/mask-color/grey">
                        <polygon points="0 0 24 0 24 6.46875 24 24 0 24"></polygon>
                    </g>
                </g>
            </g>
        </g>
    </g>
</svg>