<?xml version="1.0" encoding="UTF-8"?>
<svg width="24px" height="24px" viewBox="0 0 24 24" version="1.1" xmlns="http://www.w3.org/2000/svg" xmlns:xlink="http://www.w3.org/1999/xlink">
    <!-- Generator: sketchtool 49.3 (51167) - http://www.bohemiancoding.com/sketch -->
    <title>6EE4FFBD-406C-4F4D-A2ED-491A04139596</title>
    <desc>Created with sketchtool.</desc>
    <defs>
        <path d="M17.6625,0.3375 C17.2125,-0.1125 16.5375,-0.1125 16.0875,0.3375 L9,7.425 L1.9125,0.3375 C1.4625,-0.1125 0.7875,-0.1125 0.3375,0.3375 C-0.1125,0.7875 -0.1125,1.4625 0.3375,1.9125 L7.425,9 L0.3375,16.0875 C-0.1125,16.5375 -0.1125,17.2125 0.3375,17.6625 C0.5625,17.8875 0.7875,18 1.125,18 C1.4625,18 1.6875,17.8875 1.9125,17.6625 L9,10.575 L16.0875,17.6625 C16.3125,17.8875 16.65,18 16.875,18 C17.1,18 17.4375,17.8875 17.6625,17.6625 C18.1125,17.2125 18.1125,16.5375 17.6625,16.0875 L10.575,9 L17.6625,1.9125 C18.1125,1.4625 18.1125,0.7875 17.6625,0.3375 Z" id="path-1"></path>
    </defs>
    <g id="Symbols" stroke="none" stroke-width="1" fill="none" fill-rule="evenodd">
        <g id="icon/close">
            <g id="ic-close-24px" transform="translate(3.000000, 3.000000)">
                <mask id="mask-2" fill="white">
                    <use xlink:href="#path-1"></use>
                </mask>
                <use id="Shape" fill="#bdbdbd" fill-rule="nonzero" xlink:href="#path-1"></use>
                <g id="Color/Black" mask="url(#mask-2)" fill="#bdbdbd">
                    <g transform="translate(-3.000000, -3.000000)" id="icon/mask-color/grey">
                        <polygon points="0 0 24 0 24 6.46875 24 24 0 24"></polygon>
                    </g>
                </g>
            </g>
        </g>
    </g>
</svg>