<?xml version="1.0" encoding="UTF-8"?>
<svg width="24px" height="24px" viewBox="0 0 24 24" version="1.1" xmlns="http://www.w3.org/2000/svg" xmlns:xlink="http://www.w3.org/1999/xlink">
    <!-- Generator: Sketch 49.2 (51160) - http://www.bohemiancoding.com/sketch -->
    <title>icon/drink-item</title>
    <desc>Created with Sketch.</desc>
    <defs>
        <path d="M1.91666667,10 L14.75,10 L13.3333333,19.3333333 C13.25,19.6666667 12.9166667,20 12.5,20 L4.16666667,20 C3.75,20 3.41666667,19.6666667 3.33333333,19.3333333 L1.91666667,10 Z M15.8333333,5 C16.3333333,5 16.6666667,5.33333333 16.6666667,5.83333333 L16.6666667,7.5 C16.6666667,8 16.3333333,8.33333333 15.8333333,8.33333333 L0.833333333,8.33333333 C0.333333333,8.33333333 0,8 0,7.5 L0,5.83333333 C0,5.33333333 0.333333333,5 0.833333333,5 L10.25,5 L11.75,0.583333333 C11.8333333,0.25 12.1666667,0 12.5,0 L15.8333333,0 C16.3333333,0 16.6666667,0.333333333 16.6666667,0.833333333 C16.6666667,1.33333333 16.3333333,1.66666667 15.8333333,1.66666667 L13.0833333,1.66666667 L12,5 L15.8333333,5 Z" id="path-1"></path>
    </defs>
    <g id="icon/drink-item" stroke="none" stroke-width="1" fill="none" fill-rule="evenodd">
        <g id="cocktail-glass" transform="translate(4.000000, 2.000000)">
            <mask id="mask-2" fill="white">
                <use xlink:href="#path-1"></use>
            </mask>
            <use id="Shape" fill="#bdbdbd" fill-rule="nonzero" xlink:href="#path-1"></use>
            <g id="Color/grey" mask="url(#mask-2)" fill="#bdbdbd">
                <g transform="translate(-4.000000, -2.000000)" id="icon/mask-color/grey">
                    <polygon points="0 0 24 0 24 6.46875 24 24 0 24"></polygon>
                </g>
            </g>
        </g>
    </g>
</svg>