<?xml version="1.0" encoding="UTF-8"?>
<svg width="200px" height="125px" viewBox="0 0 200 125" version="1.1" xmlns="http://www.w3.org/2000/svg" xmlns:xlink="http://www.w3.org/1999/xlink">
    <!-- Generator: sketchtool 48.2 (47327) - http://www.bohemiancoding.com/sketch -->
    <title>815F8DB3-2570-4DB0-B857-E01438714D45</title>
    <desc>Created with sketchtool.</desc>
    <defs>
        <path d="M34.1255158,3.07442045 L60.7533144,74.6321048 L0,74.6321048 L26.6277986,3.07442045 C27.3982427,1.00398302 29.7012321,-0.0498698418 31.7716695,0.720574188 C32.8610083,1.12593518 33.7201548,1.98508165 34.1255158,3.07442045 Z" id="path-1"></path>
    </defs>
    <g id="Search---No-Result" stroke="none" stroke-width="1" fill="none" fill-rule="evenodd" transform="translate(-620.000000, -141.000000)">
        <g id="No-result" transform="translate(556.000000, 64.000000)">
            <rect id="Rectangle-74" x="0" y="0" width="328" height="240"></rect>
            <rect id="Rectangle-71" fill-opacity="0.2" fill="#212121" x="64" y="200" width="200" height="2" rx="1"></rect>
            <g id="Group-39" transform="translate(79.000000, 124.000000)" fill="#EFEFEF">
                <rect id="Rectangle-61" x="51" y="56" width="52" height="20"></rect>
                <path d="M61.6166649,26.1454615 C66.555863,10.9636749 80.7243487,0 97.4323564,0 C118.245579,0 135.11803,17.0131795 135.11803,38 C135.11803,44.7499281 133.372678,51.0888072 130.312214,56.5828071 C127.569197,61.5069419 136.248124,62.2770281 143.084452,65.9377367 C152.021819,70.7235074 147.101592,76 141.482989,76 C130.312214,76 103.024984,76 97.4323564,76 C89.7291492,76 82.5657581,73.6694954 76.5978022,69.6695736 C72.2232756,73.6068658 66.4524723,76 60.1273461,76 C50.13865,76 27.6850873,76 23.4260441,76 C18.4721644,76 21.690548,70.041684 27.8088772,65.9114978 C34.0913098,61.6705335 35.384227,55.1790583 35.384227,51.0505051 C35.384227,37.2712795 46.4620987,26.1010101 60.1273461,26.1010101 C60.6273888,26.1010101 61.1239671,26.115967 61.6166649,26.1454615 Z" id="Combined-Shape"></path>
                <path d="M6.5,75.9834543 C10.0898509,75.9834543 13,76.3193503 13,73.9642629 C13,71.6091755 10.0898509,69 6.5,69 C2.91014913,69 0,71.6091755 0,73.9642629 C0,76.3193503 2.91014913,75.9834543 6.5,75.9834543 Z" id="Oval-15"></path>
            </g>
            <g id="Group-33" transform="translate(150.000000, 162.000000)">
                <circle id="Oval-19-Copy-2" fill="#757575" cx="3.36648635" cy="2.5" r="2.5"></circle>
                <circle id="Oval-19-Copy-3" fill="#757575" cx="25.3664863" cy="2.5" r="2.5"></circle>
                <path d="M10,12.969927 C11.0170272,10.323309 12.7776113,9 15.2817523,9 C17.7858934,9 19.5029297,10.323309 20.4328613,12.969927" id="Path-27" stroke="#979797" stroke-width="2" stroke-linecap="round"></path>
            </g>
            <g id="Group-38" transform="translate(206.163775, 109.725953) rotate(-330.000000) translate(-206.163775, -109.725953) translate(175.663775, 72.225953)">
                <mask id="mask-2" fill="white">
                    <use xlink:href="#path-1"></use>
                </mask>
                <use id="Triangle-2" fill="#D8D8D8" xlink:href="#path-1"></use>
                <g id="Group-30" mask="url(#mask-2)" opacity="0.3" stroke-linecap="square">
                    <g transform="translate(30.347079, 52.908029) rotate(-315.000000) translate(-30.347079, -52.908029) translate(-10.652921, 12.408029)" id="Group-31">
                        <g transform="translate(6.556499, 0.000000)">
                            <path d="M1.13912465,0.392462043 L1.13912465,79.6736803" id="Line-Copy" stroke="#979797"></path>
                            <path d="M17.8462861,0.392462043 L17.8462861,79.6736803" id="Line-Copy-3" stroke="#979797"></path>
                            <path d="M34.5534476,0.392462043 L34.5534476,79.6736803" id="Line-Copy-5" stroke="#979797"></path>
                            <path d="M51.260609,0.392462043 L51.260609,79.6736803" id="Line-Copy-7" stroke="#979797"></path>
                            <path d="M67.9677705,0.392462043 L67.9677705,79.6736803" id="Line-Copy-9" stroke="#979797"></path>
                        </g>
                        <g transform="translate(40.641074, 40.477681) rotate(-270.000000) translate(-40.641074, -40.477681) translate(5.641074, -0.022319)">
                            <path d="M1.13912465,0.392462043 L1.13912465,79.6736803" id="Line-Copy" stroke="#979797"></path>
                            <path d="M17.8462861,0.392462043 L17.8462861,79.6736803" id="Line-Copy-3" stroke="#979797"></path>
                            <path d="M34.5534476,0.392462043 L34.5534476,79.6736803" id="Line-Copy-5" stroke="#979797"></path>
                            <path d="M51.260609,0.392462043 L51.260609,79.6736803" id="Line-Copy-7" stroke="#979797"></path>
                            <path d="M67.9677705,0.392462043 L67.9677705,79.6736803" id="Line-Copy-9" stroke="#979797"></path>
                        </g>
                    </g>
                </g>
            </g>
        </g>
    </g>
</svg>