<?xml version="1.0" encoding="UTF-8"?>
<svg width="24px" height="24px" viewBox="0 0 24 24" version="1.1" xmlns="http://www.w3.org/2000/svg" xmlns:xlink="http://www.w3.org/1999/xlink">
    <!-- Generator: Sketch 49.2 (51160) - http://www.bohemiancoding.com/sketch -->
    <title>icon/facebook</title>
    <desc>Created with Sketch.</desc>
    <defs>
        <path d="M10.3846154,0.144230769 L10.3846154,3.31730769 L8.49759615,3.31730769 C7.80849359,3.31730769 7.34375,3.46153846 7.10336538,3.75 C6.86298077,4.03846154 6.74278846,4.47115385 6.74278846,5.04807692 L6.74278846,7.31971154 L10.2644231,7.31971154 L9.79567308,10.8774038 L6.74278846,10.8774038 L6.74278846,20 L3.06490385,20 L3.06490385,10.8774038 L0,10.8774038 L0,7.31971154 L3.06490385,7.31971154 L3.06490385,4.69951923 C3.06490385,3.20913462 3.48157051,2.05328526 4.31490385,1.23197115 C5.14823718,0.410657051 6.25801282,0 7.64423077,0 C8.82211538,0 9.73557692,0.0480769231 10.3846154,0.144230769 Z" id="path-1"></path>
    </defs>
    <g id="icon/facebook" stroke="none" stroke-width="1" fill="none" fill-rule="evenodd">
        <g id="facebook" transform="translate(7.000000, 2.000000)">
            <mask id="mask-2" fill="white">
                <use xlink:href="#path-1"></use>
            </mask>
            <use id="Shape" fill="#fff" fill-rule="nonzero" xlink:href="#path-1"></use>
            <g id="Color/Black" mask="url(#mask-2)" fill="#fff">
                <g transform="translate(-7.000000, -2.000000)" id="icon/mask-color/grey">
                    <polygon points="0 0 24 0 24 6.46875 24 24 0 24"></polygon>
                </g>
            </g>
        </g>
    </g>
</svg>