<?xml version="1.0" encoding="UTF-8"?>
<svg width="24px" height="24px" viewBox="0 0 24 24" version="1.1" xmlns="http://www.w3.org/2000/svg" xmlns:xlink="http://www.w3.org/1999/xlink">
    <!-- Generator: Sketch 49.2 (51160) - http://www.bohemiancoding.com/sketch -->
    <title>icon/food-item</title>
    <desc>Created with Sketch.</desc>
    <defs>
        <path d="M17.1818182,0 C17.6336875,2.76690171e-17 18,0.366312477 18,0.818181818 L18,7.36363636 C18,8.71924439 16.9010626,9.81818182 15.5454545,9.81818182 L14.7902727,9.81818182 L15.4202727,18.0065455 C15.4619799,18.5729813 15.1834179,19.1151774 14.6986464,19.4111262 C14.213875,19.7070751 13.6043068,19.7070751 13.1195354,19.4111262 C12.634764,19.1151774 12.3562019,18.5729813 12.3979091,18.0065455 L13.0279091,9.81818182 L12.2727273,9.81818182 C10.9171193,9.81818182 9.81818182,8.71924439 9.81818182,7.36363636 L9.81818182,0.818181818 C9.81818182,0.366312477 10.1844943,-2.76690171e-17 10.6363636,0 C11.088233,2.76690171e-17 11.4545455,0.366312477 11.4545455,0.818181818 L11.4545455,7.36363636 C11.4545455,7.8155057 11.8208579,8.18181818 12.2727273,8.18181818 L15.5454545,8.18181818 C15.9973239,8.18181818 16.3636364,7.8155057 16.3636364,7.36363636 L16.3636364,0.818181818 C16.3636364,0.366312477 16.7299488,-2.76690171e-17 17.1818182,0 Z M14.7272727,0.818181818 L14.7272727,6.54545455 L13.0909091,6.54545455 L13.0909091,0.818181818 C13.0909091,0.366312477 13.4572216,-2.76690171e-17 13.9090909,0 C14.3609602,2.76690171e-17 14.7272727,0.366312477 14.7272727,0.818181818 Z M4.09090909,0 C6.3491344,0.00270500427 8.17911318,1.83268379 8.18181818,4.09090909 L8.18181818,5.72727273 C8.17966418,7.64818395 6.84130762,9.30887613 4.96472727,9.71918182 L5.60209091,18.0065455 C5.64379811,18.5729813 5.36523605,19.1151774 4.88046461,19.4111262 C4.39569318,19.7070751 3.786125,19.7070751 3.30135357,19.4111262 C2.81658213,19.1151774 2.53802007,18.5729813 2.57972727,18.0065455 L3.21709091,9.71918182 C1.34051056,9.30887613 0.00215399991,7.64818395 0,5.72727273 L0,4.09090909 C0.00270500427,1.83268379 1.83268379,0.00270500427 4.09090909,0 Z" id="path-1"></path>
    </defs>
    <g id="icon/food-item" stroke="none" stroke-width="1" fill="none" fill-rule="evenodd">
        <g id="ic-restaurant-menu-24px" transform="translate(3.000000, 2.000000)">
            <mask id="mask-2" fill="white">
                <use xlink:href="#path-1"></use>
            </mask>
            <use id="Shape" fill="#fff" fill-rule="nonzero" xlink:href="#path-1"></use>
            <g id="Color/grey" mask="url(#mask-2)" fill="#fff">
                <g transform="translate(-3.000000, -2.000000)" id="icon/mask-color/grey">
                    <polygon points="0 0 24 0 24 6.46875 24 24 0 24"></polygon>
                </g>
            </g>
        </g>
    </g>
</svg>