<?xml version="1.0" encoding="UTF-8"?>
<svg width="24px" height="24px" viewBox="0 0 24 24" version="1.1" xmlns="http://www.w3.org/2000/svg" xmlns:xlink="http://www.w3.org/1999/xlink">
    <!-- Generator: Sketch 49.2 (51160) - http://www.bohemiancoding.com/sketch -->
    <title>icon/google</title>
    <desc>Created with Sketch.</desc>
    <defs>
        <path d="M10.1405758,8.18688125 L10.1405758,12.2297854 C10.1405758,12.2297854 14.036565,12.2245296 15.6229125,12.2245296 C14.763875,14.8454433 13.4281304,16.2726896 10.1405758,16.2726896 C6.81356333,16.2726896 4.21687292,13.5575762 4.21687292,10.2083333 C4.21687292,6.85909042 6.81356333,4.14397708 10.1405758,4.14397708 C11.8996142,4.14397708 13.03566,4.76638208 14.0777296,5.63388833 C14.9118671,4.79417708 14.8421883,4.67450708 16.96438,2.65699667 C15.1628717,1.00627875 12.7684908,0 10.1405758,0 C4.54006625,0 0,4.57040208 0,10.2083333 C0,15.8461633 4.54006625,20.4166667 10.1405758,20.4166667 C18.5117717,20.4166667 20.5578588,13.0787954 19.8795446,8.18688125 L10.1405758,8.18688125 Z" id="path-1"></path>
    </defs>
    <g id="icon/google" stroke="none" stroke-width="1" fill="none" fill-rule="evenodd">
        <g id="google-black" transform="translate(2.000000, 2.000000)">
            <mask id="mask-2" fill="white">
                <use xlink:href="#path-1"></use>
            </mask>
            <use id="Google" fill="#f32126" fill-rule="nonzero" xlink:href="#path-1"></use>
        </g>
    </g>
</svg>