<svg xmlns="http://www.w3.org/2000/svg" xmlns:xlink="http://www.w3.org/1999/xlink" width="24" height="24" viewBox="0 0 24 24">
    <defs>
        <path id="a" d="M17 2a4 4 0 0 1 4 4v1a4 4 0 0 1-5.54 3.691C15.807 9.862 16 8.953 16 8V7a6.952 6.952 0 0 0-1.4-4.182A3.966 3.966 0 0 1 17 2zM9 13a5 5 0 0 1-5-5V7a5 5 0 0 1 10 0v1a5 5 0 0 1-5 5zm13.839 1.405A1.992 1.992 0 0 1 24 16.221V19a1 1 0 0 1-1 1h-3.045c-.222-2.977-2.281-5.51-5.192-6.252a25.77 25.77 0 0 0-1.13-.253C14.65 13.211 15.805 13 17 13c2.354 0 4.555.815 5.839 1.405zM17 22H1a1 1 0 0 1-1-1v-.475c0-2.275 1.527-4.277 3.731-4.839C5.205 15.31 7.021 15 9 15s3.795.31 5.269.686C16.473 16.248 18 18.25 18 20.525V21a1 1 0 0 1-1 1z"/>
    </defs>
    <g fill="none" fill-rule="evenodd">
        <mask id="b" fill="#fff">
            <use xlink:href="#a"/>
        </mask>
        <g fill="#bdbdbd" mask="url(#b)">
            <path d="M0 0h24v24H0z"/>
        </g>
    </g>
</svg>
