<svg xmlns="http://www.w3.org/2000/svg" width="60" height="60" viewBox="0 0 60 60">
    <g fill="none" fill-rule="nonzero" transform="translate(-2 -2)">
        <circle cx="32" cy="32" r="32"/>
        <path fill="#3468D8" d="M59.5 62h-55A2.507 2.507 0 0 1 2 59.5V10.625c0-1.375 1.125-2.5 2.5-2.5h55c1.375 0 2.5 1.125 2.5 2.5V59.5c0 1.375-1.125 2.5-2.5 2.5z"/>
        <path fill="#FAFAFA" d="M57.625 22.375H6.375c-.75 0-1.25.5-1.25 1.25v34c0 .75.5 1.25 1.25 1.25h42.5l10-10v-25.25c0-.625-.5-1.25-1.25-1.25z"/>
        <path fill="#DADADA" d="M48.875 58.875l10-10H50c-.625 0-1.125.5-1.125 1.125v8.875z"/>
        <g fill="#FFF" transform="translate(9.266 10.203)">
            <circle cx="2.734" cy="2.672" r="2.625"/>
            <circle cx="16.109" cy="2.672" r="2.625"/>
            <circle cx="29.359" cy="2.672" r="2.625"/>
            <circle cx="42.734" cy="2.672" r="2.625"/>
        </g>
        <g fill="#212121">
            <path d="M12 14.25c-.875 0-1.625-.75-1.625-1.625v-9C10.25 2.75 11 2 12 2c.875 0 1.625.75 1.625 1.625V12.5c0 1-.75 1.75-1.625 1.75zM25.375 14.25c-.875 0-1.625-.75-1.625-1.625v-9C23.75 2.75 24.5 2 25.375 2S27 2.75 27 3.625V12.5c0 1-.75 1.75-1.625 1.75zM38.625 14.25c-.875 0-1.625-.75-1.625-1.625v-9C37 2.75 37.75 2 38.625 2s1.625.75 1.625 1.625V12.5c.125 1-.625 1.75-1.625 1.75zM52 14.25c-.875 0-1.625-.75-1.625-1.625v-9C50.375 2.75 51.125 2 52 2s1.625.75 1.625 1.625V12.5c.125 1-.625 1.75-1.625 1.75z"/>
        </g>
        <g fill="#DADADA">
            <path d="M21.625 26.125H29.5v7.125h-7.875zM34.5 26.125h7.875v7.125H34.5zM47.25 26.125h7.875v7.125H47.25zM8.875 37.125h7.875v7.125H8.875z"/>
        </g>
        <path fill="#FFD35E" d="M21.625 37.125H29.5v7.125h-7.875z"/>
        <g fill="#DADADA">
            <path d="M34.5 37.125h7.875v7.125H34.5zM47.25 37.125h7.875v7.125H47.25zM8.875 48h7.875v7.125H8.875zM21.625 48H29.5v7.125h-7.875zM34.5 48h7.875v7.125H34.5z"/>
        </g>
    </g>
</svg>
