<svg xmlns="http://www.w3.org/2000/svg" width="65" height="47" viewBox="0 0 65 47">
    <g fill="none" fill-rule="nonzero" transform="translate(0 -8)">
        <circle cx="32" cy="32" r="32"/>
        <path fill="#E5A081" d="M1 50h64v5H1z"/>
        <path fill="#087531" d="M14.616 8h3.062a1 1 0 0 1 1 1v12.586a10 10 0 0 0 1.984 5.978l.005.007a10.025 10.025 0 0 1 1.988 5.993V50H10V33.459c0-2.1.63-4.15 1.808-5.888l.085-.126a10 10 0 0 0 1.723-5.611V9a1 1 0 0 1 1-1z"/>
        <path fill="#FFD35E" d="M13.616 10.531h5.062v4.701h-5.062z"/>
        <path fill="#BDBDBD" d="M18.271 47.05h43a3 3 0 0 1 3 3h-49a3 3 0 0 1 3-3z"/>
        <path fill="#D8D8D8" d="M40.136 14.147c.998 0 1.808.81 1.808 1.808v3.616h-3.616v-3.616c0-.999.81-1.808 1.808-1.808z"/>
        <path fill="#DADADA" d="M40.136 19.209c12.181 0 22.056 9.875 22.056 22.057v5.785H18.08v-5.785c0-12.182 9.875-22.057 22.057-22.057z"/>
        <path fill="#4FC8FF" d="M5 39.379h2v10.124H5z"/>
        <path fill="#99E2FF" d="M0 21.379h12v12.44a6 6 0 1 1-12 0V21.38z"/>
        <path fill="#4FC8FF" d="M4 48h3.955a2 2 0 0 1 2 2H2a2 2 0 0 1 2-2z"/>
        <path fill="#FFF" d="M48.145 26.534a19.717 19.717 0 0 1 5.499 4.922 1 1 0 0 0 1.589-1.214 21.717 21.717 0 0 0-6.057-5.422 1 1 0 0 0-1.031 1.714z"/>
    </g>
</svg>
