<svg xmlns="http://www.w3.org/2000/svg" width="64" height="64" viewBox="0 0 64 64">
    <g fill="none" fill-rule="nonzero">
        <circle cx="32" cy="32" r="32"/>
        <path fill="#DADADA" d="M32.118 60.424l.964-5.502s-8.754-25.51-8.811-25.85a6.8 6.8 0 0 1-.05-1.986l-10.601-1.52-.298 1.704-4.257-.745a5.19 5.19 0 0 0-6.01 4.22L.218 46.943a5.192 5.192 0 0 0 4.22 6.004l4.258.747-.448 2.557a1.731 1.731 0 1 0-.598 3.409l23.864 4.174a1.731 1.731 0 0 0 .596-3.41h.009zM9.295 50.284l-3.41-.596a2.595 2.595 0 0 1-2.109-3.004l2.535-14.49a2.594 2.594 0 0 1 3.003-2.11l3.41.595-3.43 19.604z"/>
        <path fill="#FFD35E" d="M26.471 28.693c-.575.2-1.14.418-1.715.582-.257.072-.433.137-.49-.204a6.74 6.74 0 0 1-.047-2.057c0-.036.02-.07.025-.104l-9.511-1.149-5.153 30.12a1.12 1.12 0 0 0 .93 1.281l19.42 3.081a1.12 1.12 0 0 0 1.28-.918l1.1-6.647-5.673-23.28a4.715 4.715 0 0 1-.166-.705z"/>
        <path fill="#DADADA" d="M24.396 29.398l10.03 29.49a1.732 1.732 0 0 0 1.114 3.277l22.939-7.803a1.73 1.73 0 0 0-1.115-3.277l-1.008-2.953 3.447-1.172a5.193 5.193 0 0 0 3.249-6.588l-5.294-15.564a5.193 5.193 0 0 0-6.587-3.243l-3.448 1.178-.39-1.143-22.937 7.798zm33.48 14.565l-2.629.896-6.409-18.844 2.628-.897a2.595 2.595 0 0 1 3.293 1.622l4.738 13.928a2.594 2.594 0 0 1-1.621 3.293v.002z"/>
        <path fill="#FFD35E" d="M46.333 21.934L25.3 29.09l9.82 28.238c.202.58.833.89 1.416.695l18.642-6.25a1.12 1.12 0 0 0 .706-1.418l-9.552-28.42z"/>
        <path fill="#F9F2CC" d="M24.223 27.014a5.105 5.105 0 0 1 5.288-4.472c.101-.155.21-.305.327-.448a4.094 4.094 0 0 0-.418-.113 10.362 10.362 0 0 0-3.765.224 6.919 6.919 0 0 0-12.036 3.352l10.57 2.07c.008-.2.006-.41.034-.613zM45.405 2.24a2.24 2.24 0 1 1-4.481 0 2.24 2.24 0 0 1 4.481 0zM37.563 10.083a4.482 4.482 0 1 1-8.963 0 4.482 4.482 0 0 1 8.963 0zM20.758 11.204a3.361 3.361 0 1 1-6.723 0 3.361 3.361 0 0 1 6.723 0zM12.915 2.24a2.24 2.24 0 1 1-4.481 0 2.24 2.24 0 0 1 4.481 0z"/>
        <g fill="#212121" fill-opacity=".1">
            <path d="M39.056 33.26c-.1-.288-.314-.525-.593-.651-.263.24-.572.423-.91.539a2.627 2.627 0 0 1-.601.12c-.085.23-.09.481-.017.714l6.525 19.179a1.12 1.12 0 0 0 2.12-.722l-6.524-19.178zM31.901 34.513a1.12 1.12 0 0 1 1.421.7l6.524 19.177a1.12 1.12 0 1 1-2.12.721l-6.524-19.177a1.12 1.12 0 0 1 .699-1.421zM43.37 30.61a1.12 1.12 0 0 1 1.42.7l6.524 19.177a1.12 1.12 0 1 1-2.12.722L42.67 32.031a1.12 1.12 0 0 1 .7-1.421zM19.565 55.737l3.49-19.954a1.12 1.12 0 1 1 2.208.386l-3.49 19.955a1.12 1.12 0 0 1-1.297.91h-.001a1.12 1.12 0 0 1-.91-1.297zM25.519 56.789l1.808-10.968a1.12 1.12 0 1 1 2.21.364l-1.808 10.968a1.12 1.12 0 1 1-2.21-.364zM13.598 54.693l3.489-19.953a1.12 1.12 0 0 1 1.296-.911h.002a1.12 1.12 0 0 1 .91 1.297l-3.489 19.953a1.12 1.12 0 0 1-1.296.91h-.001a1.12 1.12 0 0 1-.911-1.296z"/>
        </g>
        <path fill="#CCC" d="M31.332 62.32a.596.596 0 0 1-.095-.008l-22.896-3.85a.558.558 0 0 1-.46-.647.573.573 0 0 1 .646-.46l22.898 3.852a.56.56 0 0 1-.093 1.112zM35.112 60.57a.56.56 0 0 1-.182-1.092l22.057-7.562a.56.56 0 0 1 .363 1.061l-22.056 7.562a.573.573 0 0 1-.182.03z"/>
        <path fill="#F9F2CC" d="M24.223 27.014a6.783 6.783 0 0 0 .047 2.058c.057.336.233.275.49.203.62-.177 1.232-.42 1.852-.631a1.12 1.12 0 0 1 1.422.699l.706 2.076a2.698 2.698 0 0 0 3.084 1.835 2.597 2.597 0 0 0 1.879-3.367l.51 1.499a2.698 2.698 0 0 0 3.083 1.834 2.595 2.595 0 0 0 1.88-3.366l-1.312-3.855a1.12 1.12 0 0 1 .7-1.42l8.77-2.984a6.92 6.92 0 0 0-12.411-1.457 5.175 5.175 0 0 0-5.412 2.404 5.154 5.154 0 0 0-5.288 4.472z"/>
    </g>
</svg>
