<svg xmlns="http://www.w3.org/2000/svg" width="23" height="24" viewBox="0 0 23 24">
    <g fill="#FFF" fill-rule="nonzero">
        <path d="M.61 23.132a2.394 2.394 0 0 1-.602-1.428c-.008-.09-.006-.18-.006-.269C.002 15.147.003 8.86 0 2.571 0 1.918.186 1.344.6.874l11.124 11.135L.609 23.132zM1.69 23.858l10.943-10.95 3.905 3.903-4.841 2.592c-2.652 1.42-5.304 2.841-7.955 4.263-.653.35-1.327.443-2.052.192zM1.695.13c.712-.225 1.388-.156 2.045.197 2.925 1.571 5.853 3.137 8.78 4.704l3.777 2.024c.086.045.17.095.225.126l-3.891 3.895L1.695.129zM13.51 12.015l4.19-4.19c-.009 0 .011-.005.025.002 1.267.678 2.554 1.323 3.797 2.044 1.606.931 1.62 3.298.02 4.238-1.214.715-2.478 1.347-3.724 2.008-.057.03-.182.018-.225-.025-1.364-1.354-2.721-2.715-4.083-4.077z"/>
    </g>
</svg>
