<svg xmlns="http://www.w3.org/2000/svg" width="63" height="60" viewBox="0 0 63 60">
    <g fill="none" fill-rule="nonzero" transform="translate(0 -2)">
        <circle cx="32" cy="32" r="32"/>
        <circle cx="42.04" cy="22.277" r="7.776" fill="#FFD35E"/>
        <path fill="#212121" d="M11.964 44.951l7.5 14.562a3.987 3.987 0 0 0 7.089-3.65l-7.5-14.563-7.09 3.651z"/>
        <path fill="#E6E7E8" d="M51.566 42.213l-20.034-38.9C28.398 14.861 18.741 23.056 11.617 26.86l-6.16 3.172c-4.94 2.544-6.882 8.611-4.338 13.551 2.543 4.94 8.61 6.882 13.55 4.338l6.16-3.173c7.234-3.59 19.514-6.692 30.737-2.536z"/>
        <path fill="#FA393D" d="M5.457 30.033c-4.94 2.544-6.882 8.611-4.338 13.551 2.543 4.94 8.61 6.882 13.55 4.338l6.16-3.173-9.212-17.888-6.16 3.172zM31.083 2.44a1.614 1.614 0 0 1 2.168.694L52.52 40.55a1.614 1.614 0 0 1-.695 2.168 1.614 1.614 0 0 1-2.168-.694L30.388 4.608a1.614 1.614 0 0 1 .695-2.168z"/>
        <path fill="#212121" d="M22.092 47.435l1.739-.896 2.526 4.905-1.738.895z"/>
        <g fill="#DADADA">
            <path d="M46.895 12.52a.658.658 0 0 1-.904-.85l3.622-8.245a.657.657 0 1 1 1.205.53L47.195 12.2a.655.655 0 0 1-.3.32zM59.99 14.258l-8.007 4.124a.658.658 0 1 1-.603-1.17l8.007-4.123a.658.658 0 1 1 .602 1.17zM62.615 27.768a.654.654 0 0 1-.435.06l-8.816-1.84a.658.658 0 1 1 .269-1.288l8.816 1.84a.658.658 0 0 1 .166 1.228z"/>
        </g>
    </g>
</svg>
