<svg xmlns="http://www.w3.org/2000/svg" width="38" height="64" viewBox="0 0 38 64">
    <g fill="none" fill-rule="nonzero">
        <path fill="#FDCDCE" d="M33.769 64H3.623A3.622 3.622 0 0 1 0 60.377V3.623A3.622 3.622 0 0 1 3.623 0h30.146c2 0 3.622 1.622 3.622 3.623v56.754A3.622 3.622 0 0 1 33.77 64z"/>
        <path fill="#555" d="M33.769 64H3.623A3.622 3.622 0 0 1 0 60.377v-4.004h37.391v4.004A3.622 3.622 0 0 1 33.77 64zM37.391 7.923H0v-4.3A3.622 3.622 0 0 1 3.623 0h30.146c2 0 3.622 1.622 3.622 3.623v4.3z"/>
        <path fill="#F72C2C" d="M24.984 46.17a6.289 6.289 0 1 1-12.577 0 6.289 6.289 0 0 1 12.577 0z"/>
        <path fill="#FAFAFA" d="M29.742 36.71H7.65a2.578 2.578 0 0 1-2.578-2.577V14.78a2.577 2.577 0 0 1 2.578-2.577h22.093a2.578 2.578 0 0 1 2.578 2.577v19.354a2.578 2.578 0 0 1-2.578 2.578z"/>
        <path fill="#212121" d="M16.048 3.263H13.4a.967.967 0 0 0 0 1.934h2.648a.967.967 0 0 0 0-1.934zM23.991 3.263h-4.888a.967.967 0 0 0 0 1.934h4.888a.966.966 0 1 0 0-1.934z"/>
        <path fill="#8E2D2A" d="M10.37 23.979h16.652v4.203H10.37z"/>
        <path fill="#FFD35E" d="M27.76 28.946c.147-.69-.322-1.353-.96-1.353H10.591c-.639 0-1.108.662-.961 1.353.224 1.055.774 2.464 2.115 3.217a3.595 3.595 0 0 0 1.763.45h10.373c.61 0 1.218-.145 1.763-.45 1.341-.753 1.89-2.162 2.115-3.217zM22.742 16.77a7.238 7.238 0 0 0-1.975-.435 26.42 26.42 0 0 0-4.142 0 7.238 7.238 0 0 0-1.976.436c-3.612 1.36-4.85 4.132-5.274 5.895-.194.802.344 1.59 1.089 1.59h16.463c.745 0 1.283-.788 1.09-1.59-.425-1.763-1.663-4.536-5.275-5.895z"/>
        <path fill="#212121" d="M15.854 60.607h5.683a.966.966 0 1 0 0-1.933h-5.683a.967.967 0 0 0 0 1.933z"/>
    </g>
</svg>
