<svg xmlns="http://www.w3.org/2000/svg" xmlns:xlink="http://www.w3.org/1999/xlink" width="52" height="62" viewBox="0 0 52 62">
    <defs>
        <path id="a" d="M10.261 2.938c-.296.42-.774.694-1.311.694-.563 0-1.06-.3-1.352-.754a1.61 1.61 0 0 1-1.351.754c-.563 0-1.06-.3-1.352-.754a1.61 1.61 0 0 1-1.352.754 1.609 1.609 0 0 1-1.34-.735V8.5c0 .116.091.21.203.21h7.653a.206.206 0 0 0 .202-.21V2.938zM2.343 13.204H.82c-.453 0-.821-.384-.821-.857V.857C0 .384.368 0 .821 0h14.236c.337 0 .636.211.762.538l2.53 6.58 2.417 1.957a.877.877 0 0 1 .317.677v2.595c0 .473-.368.857-.821.857h-1.605c-.138.96-.933 1.698-1.89 1.698-.958 0-1.753-.738-1.89-1.698H6.122c-.137.96-.933 1.698-1.89 1.698-.957 0-1.753-.738-1.89-1.698zm13.503-6.11c.18 0 .309-.182.257-.362l-1.401-4.828a.27.27 0 0 0-.257-.199H13.01a.275.275 0 0 0-.27.28v4.828c0 .155.121.28.27.28h2.835z"/>
    </defs>
    <g fill="none" fill-rule="evenodd">
        <path fill="#32D770" fill-rule="nonzero" d="M50.47 20H1.53C.684 20 0 20.672 0 21.5v39c0 .828.685 1.5 1.53 1.5h48.94c.845 0 1.53-.672 1.53-1.5v-39c0-.828-.685-1.5-1.53-1.5z"/>
        <path fill="#F3F3F3" fill-rule="nonzero" d="M41.294 31.818l-9.176 9-7.462-7.318L38.42 20h-6.489L9.176 42.318l-9.176-9v6.364L5.932 45.5 0 51.318v6.364l9.176-9L22.756 62h9.547L48.94 45.682l3.059 3v-6.364l-10.706-10.5zm-13.765 28.5L12.421 45.5l8.99-8.818 10.707 10.5 9.176-9 4.403 4.318L27.53 60.318z"/>
        <path fill="#FFF" fill-rule="nonzero" d="M23 20h-6.453l-5.9 5.732L4.747 20H1.521C.681 20 0 20.662 0 21.478v.179L10.647 32 23 20z"/>
        <g transform="translate(9)">
            <ellipse cx="17.5" cy="44.063" fill="#212121" fill-opacity=".2" rx="9.722" ry="2.938"/>
            <path fill="#FA393D" stroke="#212121" stroke-opacity=".2" stroke-width=".5" d="M17.5 43.708l4.684-4.717.177-.074H31a3.75 3.75 0 0 0 3.75-3.75V4A3.75 3.75 0 0 0 31 .25H4A3.75 3.75 0 0 0 .25 4v31.167A3.75 3.75 0 0 0 4 38.917h8.639l.177.074 4.684 4.717z"/>
            <g transform="translate(6.792 12.833)">
                <mask id="b" fill="#fff">
                    <use xlink:href="#a"/>
                </mask>
                <use fill="#212121" xlink:href="#a"/>
                <g fill="#FFF" mask="url(#b)">
                    <path d="M-.958-5h23v24h-23z"/>
                </g>
            </g>
        </g>
    </g>
</svg>
