<?xml version="1.0" encoding="UTF-8"?>
<svg width="24px" height="24px" viewBox="0 0 24 24" version="1.1" xmlns="http://www.w3.org/2000/svg" xmlns:xlink="http://www.w3.org/1999/xlink">
    <!-- Generator: Sketch 49.2 (51160) - http://www.bohemiancoding.com/sketch -->
    <title>icon/instagram</title>
    <desc>Created with Sketch.</desc>
    <defs>
        <path d="M10.00002,0 C7.28416292,0 6.94361917,0.0115116667 5.87701292,0.0601779167 C4.81262958,0.108724583 4.08569375,0.27778625 3.44962,0.525007083 C2.79203167,0.780524167 2.23435583,1.12245708 1.67838667,1.67838667 C1.12245708,2.23435583 0.780524167,2.79203167 0.525007083,3.44962 C0.27778625,4.08569375 0.108724583,4.81262958 0.0601779167,5.87701292 C0.0115116667,6.94361917 0,7.28416292 0,10.00002 C0,12.7158371 0.0115116667,13.0563808 0.0601779167,14.1229871 C0.108724583,15.1873704 0.27778625,15.9143062 0.525007083,16.55038 C0.780524167,17.2079683 1.12245708,17.7656442 1.67838667,18.3216133 C2.23435583,18.8775429 2.79203167,19.2194758 3.44962,19.4750329 C4.08569375,19.7222138 4.81262958,19.8912754 5.87701292,19.9398221 C6.94361917,19.9884883 7.28416292,20 10.00002,20 C12.7158371,20 13.0563808,19.9884883 14.1229871,19.9398221 C15.1873704,19.8912754 15.9143063,19.7222138 16.55038,19.4750329 C17.2079683,19.2194758 17.7656442,18.8775429 18.3216133,18.3216133 C18.8775429,17.7656442 19.2194758,17.2079683 19.4750329,16.55038 C19.7222137,15.9143062 19.8912754,15.1873704 19.9398221,14.1229871 C19.9884883,13.0563808 20,12.7158371 20,10.00002 C20,7.28416292 19.9884883,6.94361917 19.9398221,5.87701292 C19.8912754,4.81262958 19.7222137,4.08569375 19.4750329,3.44962 C19.2194758,2.79203167 18.8775429,2.23435583 18.3216133,1.67838667 C17.7656442,1.12245708 17.2079683,0.780524167 16.55038,0.525007083 C15.9143063,0.27778625 15.1873704,0.108724583 14.1229871,0.0601779167 C13.0563808,0.0115116667 12.7158371,0 10.00002,0 Z M10.00002,1.80179875 C12.6701083,1.80179875 12.9863983,1.81200042 14.0408583,1.86011083 C15.0158483,1.90456917 15.5453408,2.0674775 15.8977137,2.20442542 C16.3644879,2.38583208 16.6976092,2.6025275 17.0475208,2.95247917 C17.3974725,3.30239083 17.6141679,3.63551208 17.7955746,4.10228625 C17.9325225,4.45465917 18.0954308,4.98415167 18.1398892,5.95914167 C18.1879996,7.01360167 18.1982013,7.32989167 18.1982013,10.00002 C18.1982013,12.6701083 18.1879996,12.9863983 18.1398892,14.0408583 C18.0954308,15.0158483 17.9325225,15.5453408 17.7955746,15.8977138 C17.6141679,16.3644879 17.3974725,16.6976092 17.0475208,17.0475208 C16.6976092,17.3974725 16.3644879,17.6141679 15.8977137,17.7955746 C15.5453408,17.9325225 15.0158483,18.0954308 14.0408583,18.1398892 C12.9865571,18.1879996 12.6703067,18.1982012 10.00002,18.1982012 C7.32969333,18.1982012 7.0134825,18.1879996 5.95914167,18.1398892 C4.98415167,18.0954308 4.45465917,17.9325225 4.10228625,17.7955746 C3.63551208,17.6141679 3.30239083,17.3974725 2.95247917,17.0475208 C2.60256708,16.6976092 2.38583208,16.3644879 2.20442542,15.8977138 C2.0674775,15.5453408 1.90456917,15.0158483 1.86011083,14.0408583 C1.81200042,12.9863983 1.80179875,12.6701083 1.80179875,10.00002 C1.80179875,7.32989167 1.81200042,7.01360167 1.86011083,5.95914167 C1.90456917,4.98415167 2.0674775,4.45465917 2.20442542,4.10228625 C2.38583208,3.63551208 2.6025275,3.30239083 2.95247917,2.95247917 C3.30239083,2.6025275 3.63551208,2.38583208 4.10228625,2.20442542 C4.45465917,2.0674775 4.98415167,1.90456917 5.95914167,1.86011083 C7.01360167,1.81200042 7.32989167,1.80179875 10.00002,1.80179875 Z M10.00002,4.86486792 C7.16392667,4.86486792 4.86486792,7.16392667 4.86486792,10.00002 C4.86486792,12.8360733 7.16392667,15.1351321 10.00002,15.1351321 C12.8360733,15.1351321 15.1351321,12.8360733 15.1351321,10.00002 C15.1351321,7.16392667 12.8360733,4.86486792 10.00002,4.86486792 Z M10.00002,13.3333333 C8.15904208,13.3333333 6.66666667,11.8409579 6.66666667,10.00002 C6.66666667,8.15904208 8.15904208,6.66666667 10.00002,6.66666667 C11.8409579,6.66666667 13.3333333,8.15904208 13.3333333,10.00002 C13.3333333,11.8409579 11.8409579,13.3333333 10.00002,13.3333333 Z M16.538035,4.66198667 C16.538035,5.32473542 16.0007621,5.86196833 15.3380133,5.86196833 C14.6753042,5.86196833 14.1380317,5.32473542 14.1380317,4.66198667 C14.1380317,3.99923792 14.6753042,3.461965 15.3380133,3.461965 C16.0007621,3.461965 16.538035,3.99923792 16.538035,4.66198667 Z" id="path-1"></path>
    </defs>
    <g id="icon/instagram" stroke="none" stroke-width="1" fill="none" fill-rule="evenodd">
        <g id="instagram-black" transform="translate(2.000000, 2.000000)">
            <mask id="mask-2" fill="white">
                <use xlink:href="#path-1"></use>
            </mask>
            <use id="Instagram" fill="#fff" fill-rule="nonzero" xlink:href="#path-1"></use>
            <g id="Color/Black" mask="url(#mask-2)" fill="#fff">
                <g transform="translate(-2.000000, -2.000000)" id="icon/mask-color/grey">
                    <polygon points="0 0 24 0 24 6.46875 24 24 0 24"></polygon>
                </g>
            </g>
        </g>
    </g>
</svg>