<?xml version="1.0" encoding="UTF-8"?>
<svg width="24px" height="24px" viewBox="0 0 24 24" version="1.1" xmlns="http://www.w3.org/2000/svg" xmlns:xlink="http://www.w3.org/1999/xlink">
    <!-- Generator: sketchtool 49.3 (51167) - http://www.bohemiancoding.com/sketch -->
    <title>F07BBFBA-31BF-4015-B13C-E97B0E606420</title>
    <desc>Created with sketchtool.</desc>
    <defs>
        <path d="M1,13 L0,13 L0,11 L1,11 L23,11 L24,11 L24,13 L23,13 L1,13 Z M1,6 L0,6 L0,4 L1,4 L23,4 L24,4 L24,6 L23,6 L1,6 Z M1,20 L0,20 L0,18 L1,18 L23,18 L24,18 L24,20 L23,20 L1,20 Z" id="path-1"></path>
    </defs>
    <g id="Symbols" stroke="none" stroke-width="1" fill="none" fill-rule="evenodd">
        <g id="icon/menu">
            <g id="menu-34">
                <mask id="mask-2" fill="white">
                    <use xlink:href="#path-1"></use>
                </mask>
                <use id="Combined-Shape" fill="#bdbdbd" xlink:href="#path-1"></use>
                <g id="Color/Black" mask="url(#mask-2)" fill="#bdbdbd">
                    <polygon id="icon/mask-color/grey" points="0 0 24 0 24 6.46875 24 24 0 24"></polygon>
                </g>
            </g>
        </g>
    </g>
</svg>