<?xml version="1.0" encoding="UTF-8"?>
<svg width="24px" height="24px" viewBox="0 0 24 24" version="1.1" xmlns="http://www.w3.org/2000/svg" xmlns:xlink="http://www.w3.org/1999/xlink">
    <!-- Generator: sketchtool 50.2 (55047) - http://www.bohemiancoding.com/sketch -->
    <title>839F1C2C-6AF8-4A53-9004-9AC90CAC09F3</title>
    <desc>Created with sketchtool.</desc>
    <defs>
        <path d="M19.8458333,3.69166667 C19.3708333,2.10833333 17.8666667,1 16.125,1 C14.5416667,1 13.1166667,1.95 12.4833333,3.375 C12.0875,3.375 11.6916667,3.375 11.2958333,3.53333333 C9.95,3.92916667 9,5.275 9,6.7 L9,8.125 L9,9.70833333 C9,11.3708333 9.39583333,13.0333333 9.79166667,14.6958333 C10.1875,16.2791667 10.5833333,17.7833333 10.5833333,19.2083333 C10.5833333,19.6833333 10.9,20 11.375,20 L19.2916667,20 C19.7666667,20 20.0833333,19.6833333 20.0833333,19.2083333 C20.0833333,17.7041667 20.4791667,16.2 20.875,14.6166667 C21.2708333,13.0333333 21.6666667,11.3708333 21.6666667,9.70833333 L21.6666667,8.125 L21.6666667,6.54166667 C21.6666667,5.35416667 20.9541667,4.24583333 19.8458333,3.69166667 Z M10.5833333,6.7 C10.5833333,5.90833333 11.0583333,5.19583333 11.6916667,5.0375 C12.0875,4.95833333 12.4041667,4.95833333 12.7208333,5.0375 C12.9583333,5.11666667 13.1958333,5.11666667 13.4333333,5.0375 C13.6708333,4.95833333 13.75,4.72083333 13.8291667,4.48333333 C13.9875,3.375 15.0166667,2.58333333 16.125,2.58333333 C17.2333333,2.58333333 18.1833333,3.375 18.4208333,4.48333333 C18.5,4.72083333 18.7375,4.95833333 18.975,5.0375 C19.6083333,5.275 20.0833333,5.82916667 20.0833333,6.54166667 L20.0833333,7.33333333 L15.3333333,7.33333333 C14.8583333,7.33333333 14.5416667,7.65 14.5416667,8.125 L14.5416667,11.2916667 C14.5416667,11.7666667 14.225,12.0833333 13.75,12.0833333 C13.275,12.0833333 12.9583333,11.7666667 12.9583333,11.2916667 L12.9583333,8.125 C12.9583333,7.65 12.6416667,7.33333333 12.1666667,7.33333333 L10.5833333,7.33333333 L10.5833333,6.7 Z M7.36363636,0.400000095 C7.8155057,0.400000095 8.18181818,0.766312573 8.18181818,1.21818191 L8.18181818,7.76363646 C8.18181818,9.11924448 7.08288075,10.2181819 5.72727273,10.2181819 L4.97209091,10.2181819 L5.60209091,18.4065455 C5.64379811,18.9729814 5.36523605,19.5151775 4.88046461,19.8111263 C4.39569318,20.1070752 3.786125,20.1070752 3.30135357,19.8111263 C2.81658213,19.5151775 2.53802007,18.9729814 2.57972727,18.4065455 L3.20972727,10.2181819 L2.45454545,10.2181819 C1.09893743,10.2181819 0,9.11924448 0,7.76363646 L0,1.21818191 C0,0.766312573 0.366312477,0.400000095 0.818181818,0.400000095 C1.27005116,0.400000095 1.63636364,0.766312573 1.63636364,1.21818191 L1.63636364,7.76363646 C1.63636364,8.2155058 2.00267611,8.58181828 2.45454545,8.58181828 L5.72727273,8.58181828 C6.17914207,8.58181828 6.54545455,8.2155058 6.54545455,7.76363646 L6.54545455,1.21818191 C6.54545455,0.766312573 6.91176702,0.400000095 7.36363636,0.400000095 Z M4.90909091,1.21818191 L4.90909091,6.94545464 L3.27272727,6.94545464 L3.27272727,1.21818191 C3.27272727,0.766312573 3.63903975,0.400000095 4.09090909,0.400000095 C4.54277843,0.400000095 4.90909091,0.766312573 4.90909091,1.21818191 Z" id="path-1"></path>
    </defs>
    <g id="Icons" stroke="none" stroke-width="1" fill="none" fill-rule="evenodd">
        <g id="Icon/Normal/pairing">
            <g id="beer-96" transform="translate(1.000000, 2.000000)">
                <mask id="mask-2" fill="white">
                    <use xlink:href="#path-1"></use>
                </mask>
                <use id="Shape" fill="#fff" fill-rule="nonzero" xlink:href="#path-1"></use>
                <g id="Color/Black" mask="url(#mask-2)" fill="#fff">
                    <g transform="translate(-1.000000, -2.000000)" id="icon/mask-color/grey">
                        <polygon points="0 0 24 0 24 6.46875 24 24 0 24"></polygon>
                    </g>
                </g>
            </g>
        </g>
    </g>
</svg>