<?xml version="1.0" encoding="UTF-8"?>
<svg width="24px" height="24px" viewBox="0 0 24 24" version="1.1" xmlns="http://www.w3.org/2000/svg" xmlns:xlink="http://www.w3.org/1999/xlink">
    <!-- Generator: sketchtool 49.3 (51167) - http://www.bohemiancoding.com/sketch -->
    <title>37B9E784-851B-4DD0-9BA1-D7B21FFC2FFE</title>
    <desc>Created with sketchtool.</desc>
    <defs>
        <path d="M7.82608696,0 C4,0 0,2.95652174 0,7.82608696 C0,12.4347826 6.95652174,19.4782609 7.2173913,19.7391304 C7.39130435,19.9130435 7.56521739,20 7.82608696,20 C8.08695652,20 8.26086957,19.9130435 8.43478261,19.7391304 C8.69565217,19.4782609 15.6521739,12.4347826 15.6521739,7.82608696 C15.6521739,2.95652174 11.6521739,0 7.82608696,0 Z M7.82608696,10.4347826 C6.34782609,10.4347826 5.2173913,9.30434783 5.2173913,7.82608696 C5.2173913,6.34782609 6.34782609,5.2173913 7.82608696,5.2173913 C9.30434783,5.2173913 10.4347826,6.34782609 10.4347826,7.82608696 C10.4347826,9.30434783 9.30434783,10.4347826 7.82608696,10.4347826 Z" id="path-1"></path>
    </defs>
    <g id="Symbols" stroke="none" stroke-width="1" fill="none" fill-rule="evenodd">
        <g id="icon/place">
            <g id="ic-location-on-24px" transform="translate(4.000000, 2.000000)">
                <mask id="mask-2" fill="white">
                    <use xlink:href="#path-1"></use>
                </mask>
                <use id="Shape" fill="#fff" fill-rule="nonzero" xlink:href="#path-1"></use>
                <g id="Color/Black" mask="url(#mask-2)" fill="#fff">
                    <g transform="translate(-4.000000, -2.000000)" id="icon/mask-color/grey">
                        <polygon points="0 0 24 0 24 6.46875 24 24 0 24"></polygon>
                    </g>
                </g>
            </g>
        </g>
    </g>
</svg>