<?xml version="1.0" encoding="UTF-8"?>
<svg width="24px" height="24px" viewBox="0 0 24 24" version="1.1" xmlns="http://www.w3.org/2000/svg" xmlns:xlink="http://www.w3.org/1999/xlink">
    <!-- Generator: sketchtool 50.2 (55047) - http://www.bohemiancoding.com/sketch -->
    <title>CA15CECD-5838-48A5-9937-B6F3794114E4</title>
    <desc>Created with sketchtool.</desc>
    <defs>
        <path d="M19.2855551,6.62738972 L13.3853595,5.7699824 L10.7498111,0.427226604 C10.5939085,0.162506099 10.3096093,1.85017171e-16 10.0023919,0 C9.69517442,-1.85017171e-16 9.41087523,0.162506099 9.25497266,0.427226604 L6.61442476,5.7699824 L0.714229219,6.62738972 C0.400350584,6.67269553 0.139401914,6.89224919 0.041081129,7.19375447 C-0.0572396559,7.49525976 0.0241153246,7.82643854 0.250945965,8.04806948 L4.52131769,12.2092863 L3.51392658,18.0861511 C3.46036682,18.3987421 3.58890367,18.7146353 3.84549835,18.9010245 C4.10209302,19.0874137 4.44225012,19.1119778 4.72296255,18.9643895 L9.99989214,16.1905226 L15.2768217,18.9643895 C15.5575342,19.1119778 15.8976913,19.0874137 16.1542859,18.9010245 C16.4108806,18.7146353 16.5394175,18.3987421 16.4858577,18.0861511 L15.4784666,12.2092863 L19.7488383,8.04806948 C19.975599,7.82666727 20.0571285,7.49579393 19.9591924,7.19438413 C19.8612563,6.89297434 19.6008123,6.67321733 19.2872215,6.62738972 L19.2855551,6.62738972 Z" id="path-1"></path>
    </defs>
    <g id="Icons" stroke="none" stroke-width="1" fill="none" fill-rule="evenodd">
        <g id="Icon/Normal/star">
            <g id="ic-star-24px" transform="translate(2.000000, 2.000000)">
                <mask id="mask-2" fill="white">
                    <use xlink:href="#path-1"></use>
                </mask>
                <use id="Shape" fill="#fff" fill-rule="nonzero" xlink:href="#path-1"></use>
                <g id="Color/Black" mask="url(#mask-2)" fill="#fff">
                    <g transform="translate(-2.000000, -2.000000)" id="icon/mask-color/grey">
                        <polygon points="0 0 24 0 24 6.46875 24 24 0 24"></polygon>
                    </g>
                </g>
            </g>
        </g>
    </g>
</svg>