<svg xmlns="http://www.w3.org/2000/svg" xmlns:xlink="http://www.w3.org/1999/xlink" width="24" height="24" viewBox="0 0 24 24">
    <defs>
        <path id="a" d="M10.707 2.938a1.697 1.697 0 0 1-2.779-.06 1.698 1.698 0 0 1-2.82 0 1.698 1.698 0 0 1-2.808.019V8.5c0 .116.094.21.21.21h7.987a.21.21 0 0 0 .21-.21V2.938zM2.445 13.204H.857A.858.858 0 0 1 0 12.347V.857C0 .384.384 0 .857 0h14.854c.352 0 .665.211.796.538l2.64 6.58 2.521 1.957a.863.863 0 0 1 .332.677v2.595a.858.858 0 0 1-.857.857h-1.675a1.998 1.998 0 0 1-1.972 1.698 1.998 1.998 0 0 1-1.973-1.698H6.39a1.998 1.998 0 0 1-1.972 1.698 1.998 1.998 0 0 1-1.972-1.698zm14.09-6.11a.28.28 0 0 0 .268-.362L15.34 1.904a.28.28 0 0 0-.268-.199h-1.497a.28.28 0 0 0-.28.28v4.828c0 .155.125.28.28.28h2.958z"/>
    </defs>
    <g fill="none" fill-rule="evenodd" transform="translate(1 5)">
        <mask id="b" fill="#fff">
            <use xlink:href="#a"/>
        </mask>
        <use fill="#fff" xlink:href="#a"/>
        <g fill="#fff" mask="url(#b)">
            <path d="M-1-5h24v24H-1z"/>
        </g>
    </g>
</svg>
