<?xml version="1.0" encoding="UTF-8"?>
<svg width="24px" height="24px" viewBox="0 0 24 24" version="1.1" xmlns="http://www.w3.org/2000/svg" xmlns:xlink="http://www.w3.org/1999/xlink">
    <!-- Generator: Sketch 49.2 (51160) - http://www.bohemiancoding.com/sketch -->
    <title>icon/twitter</title>
    <desc>Created with Sketch.</desc>
    <defs>
        <path d="M22,2.38333333 C21.175,2.75 20.35,3.025 19.4333333,3.11666667 C20.35,2.56666667 21.0833333,1.65 21.45,0.641666667 C20.5333333,1.19166667 19.6166667,1.55833333 18.6083333,1.74166667 C17.7833333,0.825 16.5916667,0.275 15.3083333,0.275 C12.8333333,0.275 10.8166667,2.29166667 10.8166667,4.76666667 C10.8166667,5.13333333 10.8166667,5.5 10.9083333,5.775 C7.05833333,5.59166667 3.75833333,3.75833333 1.55833333,1.00833333 C1.1,1.74166667 0.916666667,2.475 0.916666667,3.3 C0.916666667,4.85833333 1.74166667,6.23333333 2.93333333,7.05833333 C2.2,7.05833333 1.46666667,6.875 0.916666667,6.50833333 C0.916666667,6.50833333 0.916666667,6.50833333 0.916666667,6.6 C0.916666667,8.8 2.475,10.6333333 4.49166667,11 C4.125,11.0916667 3.75833333,11.1833333 3.3,11.1833333 C3.025,11.1833333 2.75,11.1833333 2.475,11.0916667 C3.025,12.925 4.675,14.2083333 6.69166667,14.2083333 C5.13333333,15.4 3.20833333,16.1333333 1.1,16.1333333 C0.733333333,16.1333333 0.366666667,16.1333333 0,16.0416667 C2.01666667,17.325 4.4,18.0583333 6.875,18.0583333 C15.2166667,18.0583333 19.7083333,11.1833333 19.7083333,5.225 C19.7083333,5.04166667 19.7083333,4.85833333 19.7083333,4.675 C20.625,4.03333333 21.3583333,3.20833333 22,2.38333333 Z" id="path-1"></path>
    </defs>
    <g id="icon/twitter" stroke="none" stroke-width="1" fill="none" fill-rule="evenodd">
        <g id="logo-twitter" transform="translate(1.000000, 3.000000)">
            <mask id="mask-2" fill="white">
                <use xlink:href="#path-1"></use>
            </mask>
            <use id="Shape" fill="#bdbdbd" fill-rule="nonzero" xlink:href="#path-1"></use>
            <g id="Color/Black" mask="url(#mask-2)" fill="#bdbdbd">
                <g transform="translate(-1.000000, -3.000000)" id="icon/mask-color/grey">
                    <polygon points="0 0 24 0 24 6.46875 24 24 0 24"></polygon>
                </g>
            </g>
        </g>
    </g>
</svg>