<svg xmlns="http://www.w3.org/2000/svg" xmlns:xlink="http://www.w3.org/1999/xlink" width="24" height="24" viewBox="0 0 24 24">
    <defs>
        <path id="a" d="M8.25 9.75a4.505 4.505 0 0 1-4.5-4.5V4.5c0-2.482 2.018-4.5 4.5-4.5s4.5 2.018 4.5 4.5v.75c0 2.482-2.018 4.5-4.5 4.5zm5.492 2.236a3.768 3.768 0 0 1 2.758 3.618V18H0v-2.396a3.768 3.768 0 0 1 2.759-3.618c3.528-.978 7.455-.978 10.983 0z"/>
    </defs>
    <g fill="none" fill-rule="evenodd" transform="translate(4 3)">
        <mask id="b" fill="#fff">
            <use xlink:href="#a"/>
        </mask>
        <use fill="#bdbdbd" fill-rule="nonzero" xlink:href="#a"/>
        <g fill="#bdbdbd" mask="url(#b)">
            <path d="M-4-3h24v24H-4z"/>
        </g>
    </g>
</svg>
