<?xml version="1.0" encoding="UTF-8"?>
<svg width="24px" height="24px" viewBox="0 0 24 24" version="1.1" xmlns="http://www.w3.org/2000/svg" xmlns:xlink="http://www.w3.org/1999/xlink">
    <!-- Generator: sketchtool 49.3 (51167) - http://www.bohemiancoding.com/sketch -->
    <title>87F70783-9460-459A-AB7F-2A9D6C89D9B7</title>
    <desc>Created with sketchtool.</desc>
    <defs>
        <path d="M19.2307692,9 C19.2426905,10.0153989 19.0663818,11.0242186 18.7107692,11.9753846 C18.0646154,13.6492308 16.8176923,14.86 15.0361538,14.86 C14.0136799,14.9017884 13.0653195,14.3281076 12.6276923,13.4030769 C11.7683791,14.3064153 10.5848872,14.8306281 9.33846154,14.86 C8.1645804,14.9224871 7.01899655,14.4857682 6.18461538,13.6576923 C4.63923077,12.0423077 4.51,8.48538462 6.54615385,6.52769231 C8.20153846,4.93615385 10.3676923,4.89384615 12.6453846,5.25692308 C13.2993438,5.35121013 13.9441909,5.50045648 14.5730769,5.70307692 L14.3130769,11.2246154 C14.3130769,12.2707692 14.5994872,12.7938462 15.1723077,12.7938462 C15.654359,12.7938462 16.0389744,12.4417949 16.3261538,11.7376923 C16.6426171,10.8531329 16.7885263,9.91659937 16.7561538,8.97769231 C16.77833,7.86159133 16.5182343,6.75797058 16,5.76923077 C14.9293614,3.89260433 12.8885854,2.78386914 10.7315385,2.90692308 C9.34962495,2.87116163 7.98188897,3.192826 6.76076923,3.84076923 C4.33153846,5.19307692 3.27923077,7.79923077 3.27923077,10.6269231 C3.16160934,12.3810272 3.76380181,14.1073308 4.94692308,15.4076923 C7.37461538,17.8346154 12.0238462,17.2138462 15.24,16.0346154 L15.24,18.2030769 C13.5379446,18.9053582 11.7110881,19.2549757 9.87,19.2307692 C7.00589744,19.2307692 4.77307692,18.4779487 3.17153846,16.9723077 C1.57,15.4666667 0.769230769,13.3733333 0.769230769,10.6923077 C0.639548849,7.16741496 2.4513368,3.8547603 5.48923077,2.06230769 C7.08419421,1.17919686 8.88415342,0.73312117 10.7069231,0.769230769 C13.7838462,0.769230769 16.65,2 18.1684615,4.67615385 C18.8950371,5.99956355 19.2613553,7.49056642 19.2307692,9 Z M7.65461538,10.4123077 C7.65461538,12.0020513 8.30282051,12.7969231 9.59923077,12.7969231 C11.25,12.7969231 11.6761538,11.3984615 11.7923077,9.74769231 L11.9392308,7.25307692 C11.5115641,7.16533881 11.0757827,7.12330782 10.6392308,7.12769231 C8.66307692,7.12615385 7.65461538,8.47538462 7.65461538,10.4123077 Z" id="path-1"></path>
    </defs>
    <g id="Symbols" stroke="none" stroke-width="1" fill="none" fill-rule="evenodd">
        <g id="icon/at">
            <g id="at" transform="translate(2.000000, 2.000000)">
                <mask id="mask-2" fill="white">
                    <use xlink:href="#path-1"></use>
                </mask>
                <use id="Shape" fill="#bdbdbd" fill-rule="nonzero" xlink:href="#path-1"></use>
                <g id="Color/Black" mask="url(#mask-2)" fill="#bdbdbd">
                    <g transform="translate(-2.000000, -2.000000)" id="icon/mask-color/grey">
                        <polygon points="0 0 24 0 24 6.46875 24 24 0 24"></polygon>
                    </g>
                </g>
            </g>
        </g>
    </g>
</svg>