<?xml version="1.0" encoding="UTF-8"?>
<svg width="24px" height="24px" viewBox="0 0 24 24" version="1.1" xmlns="http://www.w3.org/2000/svg" xmlns:xlink="http://www.w3.org/1999/xlink">
    <!-- Generator: Sketch 49.2 (51160) - http://www.bohemiancoding.com/sketch -->
    <title>icon/youtube</title>
    <desc>Created with Sketch.</desc>
    <defs>
        <path d="M8.7285,10.6653782 L8.7278125,4.44021508 L14.6719375,7.5635285 L8.7285,10.6653782 Z M21.78,3.36149137 C21.78,3.36149137 21.5648125,1.83479954 20.9055,1.16250108 C20.0688125,0.279720375 19.1310625,0.275566042 18.701375,0.224330333 C15.62275,0 11.0048125,0 11.0048125,0 L10.9951875,0 C10.9951875,0 6.37725,0 3.298625,0.224330333 C2.86825,0.275566042 1.9311875,0.279720375 1.0938125,1.16250108 C0.4345,1.83479954 0.22,3.36149137 0.22,3.36149137 C0.22,3.36149137 0,5.15474804 0,6.94731263 L0,8.62840458 C0,10.4216613 0.22,12.2142258 0.22,12.2142258 C0.22,12.2142258 0.4345,13.7409177 1.0938125,14.4132157 C1.9311875,15.2959968 3.0305,15.2683016 3.52,15.3603881 C5.28,15.5307125 11,15.5833333 11,15.5833333 C11,15.5833333 15.62275,15.5764097 18.701375,15.3520794 C19.1310625,15.3001512 20.0688125,15.2959968 20.9055,14.4132157 C21.5648125,13.7409177 21.78,12.2142258 21.78,12.2142258 C21.78,12.2142258 22,10.4216613 22,8.62840458 L22,6.94731263 C22,5.15474804 21.78,3.36149137 21.78,3.36149137 Z" id="path-1"></path>
    </defs>
    <g id="icon/youtube" stroke="none" stroke-width="1" fill="none" fill-rule="evenodd">
        <g id="youtube-black" transform="translate(1.000000, 4.000000)">
            <mask id="mask-2" fill="white">
                <use xlink:href="#path-1"></use>
            </mask>
            <use id="Youtube" fill="#fff" fill-rule="nonzero" xlink:href="#path-1"></use>
            <g id="Color/Black" mask="url(#mask-2)" fill="#fff">
                <g transform="translate(-1.000000, -4.000000)" id="icon/mask-color/grey">
                    <polygon points="0 0 24 0 24 6.46875 24 24 0 24"></polygon>
                </g>
            </g>
        </g>
    </g>
</svg>